<svg width="303" height="241" viewBox="0 0 303 241" fill="none" xmlns="http://www.w3.org/2000/svg">
<g filter="url(#filter0_d_1_8)">
<rect x="4.5" y="0.5" width="293.161" height="232" rx="6.5" stroke="#FCFFFF"/>
<path d="M123.542 125.375H72.2297V109H123.542V125.375ZM130.855 162H72.2297C69.9797 162 67.5214 161.604 64.8547 160.812C62.188 160.021 59.7089 158.729 57.4172 156.938C55.1672 155.104 53.2714 152.75 51.7297 149.875C50.2297 146.958 49.4797 143.396 49.4797 139.188V80.5625C49.4797 79.4375 49.688 78.375 50.1047 77.375C50.5214 76.375 51.0839 75.5 51.7922 74.75C52.5422 74 53.4172 73.4167 54.4172 73C55.4172 72.5833 56.5005 72.375 57.6672 72.375H130.855V88.625H65.7297V139.188C65.7297 141.312 66.2922 142.938 67.4172 144.062C68.5422 145.188 70.188 145.75 72.3547 145.75H130.855V162ZM236.042 142.312C236.042 144.312 235.688 146.458 234.98 148.75C234.313 151.042 233.188 153.167 231.605 155.125C230.063 157.083 228.042 158.729 225.542 160.062C223.042 161.354 219.98 162 216.355 162H154.667C153.501 162 152.417 161.792 151.417 161.375C150.417 160.958 149.542 160.396 148.792 159.688C148.084 158.938 147.521 158.062 147.105 157.062C146.688 156.062 146.48 154.979 146.48 153.812V80.5625C146.48 79.4375 146.688 78.375 147.105 77.375C147.521 76.375 148.084 75.5 148.792 74.75C149.542 74 150.417 73.4167 151.417 73C152.417 72.5833 153.501 72.375 154.667 72.375H209.042C211.042 72.375 213.188 72.7292 215.48 73.4375C217.771 74.1458 219.896 75.2917 221.855 76.875C223.855 78.4167 225.501 80.4375 226.792 82.9375C228.126 85.4375 228.792 88.5 228.792 92.125V95.1875C228.792 98.0625 228.313 101.167 227.355 104.5C226.396 107.792 224.855 110.917 222.73 113.875C224.563 115 226.271 116.354 227.855 117.938C229.48 119.521 230.896 121.354 232.105 123.438C233.313 125.521 234.271 127.875 234.98 130.5C235.688 133.125 236.042 136.021 236.042 139.188V142.312ZM219.792 139.188C219.792 137.062 219.459 135.167 218.792 133.5C218.126 131.792 217.188 130.333 215.98 129.125C214.771 127.917 213.313 127 211.605 126.375C209.896 125.708 207.98 125.375 205.855 125.375H169.23V109H198.542C200.667 109 202.584 108.688 204.292 108.062C206.001 107.396 207.459 106.458 208.667 105.25C209.876 104.042 210.792 102.604 211.417 100.938C212.084 99.2292 212.417 97.3125 212.417 95.1875V92.125C212.417 89.7917 211.292 88.625 209.042 88.625H162.73V145.75H216.355C216.646 145.75 217.001 145.729 217.417 145.688C217.834 145.646 218.209 145.521 218.542 145.312C218.876 145.104 219.167 144.75 219.417 144.25C219.667 143.75 219.792 143.062 219.792 142.188V139.188ZM261.98 153.812C261.98 154.938 261.751 156 261.292 157C260.876 157.958 260.292 158.812 259.542 159.562C258.834 160.271 257.98 160.833 256.98 161.25C256.021 161.667 255.001 161.875 253.917 161.875C252.792 161.875 251.73 161.667 250.73 161.25C249.771 160.833 248.917 160.271 248.167 159.562C247.459 158.812 246.896 157.958 246.48 157C246.063 156 245.855 154.938 245.855 153.812C245.855 152.729 246.063 151.708 246.48 150.75C246.896 149.75 247.459 148.896 248.167 148.188C248.917 147.438 249.771 146.854 250.73 146.438C251.73 145.979 252.792 145.75 253.917 145.75C255.001 145.75 256.021 145.979 256.98 146.438C257.98 146.854 258.834 147.438 259.542 148.188C260.292 148.896 260.876 149.75 261.292 150.75C261.751 151.708 261.98 152.729 261.98 153.812Z" fill="#FCFFFF"/>
</g>
<defs>
<filter id="filter0_d_1_8" x="0" y="0" width="302.161" height="241" filterUnits="userSpaceOnUse" color-interpolation-filters="sRGB">
<feFlood flood-opacity="0" result="BackgroundImageFix"/>
<feColorMatrix in="SourceAlpha" type="matrix" values="0 0 0 0 0 0 0 0 0 0 0 0 0 0 0 0 0 0 127 0" result="hardAlpha"/>
<feOffset dy="4"/>
<feGaussianBlur stdDeviation="2"/>
<feComposite in2="hardAlpha" operator="out"/>
<feColorMatrix type="matrix" values="0 0 0 0 0 0 0 0 0 0 0 0 0 0 0 0 0 0 0.25 0"/>
<feBlend mode="normal" in2="BackgroundImageFix" result="effect1_dropShadow_1_8"/>
<feBlend mode="normal" in="SourceGraphic" in2="effect1_dropShadow_1_8" result="shape"/>
</filter>
</defs>
</svg>
