<svg width="704" height="647" viewBox="0 0 704 647" fill="none" xmlns="http://www.w3.org/2000/svg">
<g filter="url(#filter0_d_1_15)">
<g filter="url(#filter1_d_1_15)">
<path d="M4 59C4 26.4152 30.4152 0 63 0H641C673.585 0 700 26.4152 700 59V580C700 612.585 673.585 639 641 639H63C30.4152 639 4 612.585 4 580V59Z" fill="url(#paint0_linear_1_15)" shape-rendering="crispEdges"/>
</g>
<g filter="url(#filter2_dd_1_15)">
<path d="M308.383 325.644H228.207V300.058H308.383V325.644ZM319.808 382.871H228.207C224.691 382.871 220.85 382.252 216.683 381.015C212.517 379.778 208.643 377.76 205.062 374.96C201.547 372.096 198.584 368.418 196.176 363.925C193.832 359.368 192.66 353.802 192.66 347.226V255.625C192.66 253.867 192.985 252.207 193.636 250.644C194.288 249.082 195.166 247.714 196.273 246.543C197.445 245.371 198.812 244.459 200.375 243.808C201.937 243.157 203.63 242.832 205.453 242.832H319.808V268.222H218.051V347.226C218.051 350.546 218.929 353.085 220.687 354.843C222.445 356.601 225.017 357.48 228.402 357.48H319.808V382.871ZM484.164 352.109C484.164 355.234 483.61 358.587 482.504 362.168C481.462 365.748 479.704 369.069 477.23 372.128C474.821 375.188 471.664 377.76 467.758 379.843C463.851 381.862 459.066 382.871 453.402 382.871H357.015C355.192 382.871 353.5 382.545 351.937 381.894C350.375 381.243 349.008 380.364 347.836 379.257C346.729 378.085 345.85 376.718 345.199 375.156C344.548 373.593 344.222 371.901 344.222 370.078V255.625C344.222 253.867 344.548 252.207 345.199 250.644C345.85 249.082 346.729 247.714 347.836 246.543C349.008 245.371 350.375 244.459 351.937 243.808C353.5 243.157 355.192 242.832 357.015 242.832H441.976C445.101 242.832 448.454 243.385 452.035 244.492C455.616 245.599 458.936 247.389 461.996 249.863C465.121 252.272 467.692 255.429 469.711 259.335C471.794 263.242 472.836 268.027 472.836 273.691V278.476C472.836 282.968 472.087 287.819 470.59 293.027C469.092 298.17 466.683 303.053 463.363 307.675C466.228 309.433 468.897 311.549 471.371 314.023C473.91 316.497 476.123 319.362 478.011 322.617C479.9 325.872 481.397 329.55 482.504 333.652C483.61 337.753 484.164 342.278 484.164 347.226V352.109ZM458.773 347.226C458.773 343.906 458.252 340.944 457.211 338.339C456.169 335.67 454.704 333.391 452.816 331.503C450.928 329.615 448.65 328.183 445.98 327.207C443.311 326.165 440.316 325.644 436.996 325.644H379.769V300.058H425.57C428.89 300.058 431.885 299.57 434.554 298.593C437.224 297.552 439.502 296.087 441.39 294.199C443.278 292.311 444.711 290.065 445.687 287.46C446.729 284.791 447.25 281.796 447.25 278.476V273.691C447.25 270.045 445.492 268.222 441.976 268.222H369.613V357.48H453.402C453.858 357.48 454.411 357.447 455.062 357.382C455.713 357.317 456.299 357.122 456.82 356.796C457.341 356.471 457.797 355.918 458.187 355.136C458.578 354.355 458.773 353.281 458.773 351.914V347.226ZM524.691 370.078C524.691 371.835 524.333 373.496 523.617 375.058C522.966 376.556 522.054 377.89 520.883 379.062C519.776 380.169 518.441 381.048 516.879 381.699C515.381 382.35 513.786 382.675 512.094 382.675C510.336 382.675 508.676 382.35 507.113 381.699C505.616 381.048 504.281 380.169 503.109 379.062C502.002 377.89 501.123 376.556 500.472 375.058C499.821 373.496 499.496 371.835 499.496 370.078C499.496 368.385 499.821 366.79 500.472 365.293C501.123 363.73 502.002 362.395 503.109 361.289C504.281 360.117 505.616 359.205 507.113 358.554C508.676 357.838 510.336 357.48 512.094 357.48C513.786 357.48 515.381 357.838 516.879 358.554C518.441 359.205 519.776 360.117 520.883 361.289C522.054 362.395 522.966 363.73 523.617 365.293C524.333 366.79 524.691 368.385 524.691 370.078Z" fill="#F5F5F5"/>
</g>
</g>
<defs>
<filter id="filter0_d_1_15" x="0" y="0" width="704" height="647" filterUnits="userSpaceOnUse" color-interpolation-filters="sRGB">
<feFlood flood-opacity="0" result="BackgroundImageFix"/>
<feColorMatrix in="SourceAlpha" type="matrix" values="0 0 0 0 0 0 0 0 0 0 0 0 0 0 0 0 0 0 127 0" result="hardAlpha"/>
<feOffset dy="4"/>
<feGaussianBlur stdDeviation="2"/>
<feComposite in2="hardAlpha" operator="out"/>
<feColorMatrix type="matrix" values="0 0 0 0 0 0 0 0 0 0 0 0 0 0 0 0 0 0 0.25 0"/>
<feBlend mode="normal" in2="BackgroundImageFix" result="effect1_dropShadow_1_15"/>
<feBlend mode="normal" in="SourceGraphic" in2="effect1_dropShadow_1_15" result="shape"/>
</filter>
<filter id="filter1_d_1_15" x="0" y="0" width="704" height="647" filterUnits="userSpaceOnUse" color-interpolation-filters="sRGB">
<feFlood flood-opacity="0" result="BackgroundImageFix"/>
<feColorMatrix in="SourceAlpha" type="matrix" values="0 0 0 0 0 0 0 0 0 0 0 0 0 0 0 0 0 0 127 0" result="hardAlpha"/>
<feOffset dy="4"/>
<feGaussianBlur stdDeviation="2"/>
<feComposite in2="hardAlpha" operator="out"/>
<feColorMatrix type="matrix" values="0 0 0 0 0 0 0 0 0 0 0 0 0 0 0 0 0 0 0.25 0"/>
<feBlend mode="normal" in2="BackgroundImageFix" result="effect1_dropShadow_1_15"/>
<feBlend mode="normal" in="SourceGraphic" in2="effect1_dropShadow_1_15" result="shape"/>
</filter>
<filter id="filter2_dd_1_15" x="188.66" y="242.832" width="340.031" height="148.039" filterUnits="userSpaceOnUse" color-interpolation-filters="sRGB">
<feFlood flood-opacity="0" result="BackgroundImageFix"/>
<feColorMatrix in="SourceAlpha" type="matrix" values="0 0 0 0 0 0 0 0 0 0 0 0 0 0 0 0 0 0 127 0" result="hardAlpha"/>
<feOffset dy="4"/>
<feGaussianBlur stdDeviation="2"/>
<feComposite in2="hardAlpha" operator="out"/>
<feColorMatrix type="matrix" values="0 0 0 0 0 0 0 0 0 0 0 0 0 0 0 0 0 0 0.25 0"/>
<feBlend mode="normal" in2="BackgroundImageFix" result="effect1_dropShadow_1_15"/>
<feColorMatrix in="SourceAlpha" type="matrix" values="0 0 0 0 0 0 0 0 0 0 0 0 0 0 0 0 0 0 127 0" result="hardAlpha"/>
<feOffset dy="4"/>
<feGaussianBlur stdDeviation="2"/>
<feComposite in2="hardAlpha" operator="out"/>
<feColorMatrix type="matrix" values="0 0 0 0 0 0 0 0 0 0 0 0 0 0 0 0 0 0 0.25 0"/>
<feBlend mode="normal" in2="effect1_dropShadow_1_15" result="effect2_dropShadow_1_15"/>
<feBlend mode="normal" in="SourceGraphic" in2="effect2_dropShadow_1_15" result="shape"/>
</filter>
<linearGradient id="paint0_linear_1_15" x1="350.09" y1="5.10779e-05" x2="-848.611" y2="60.4032" gradientUnits="userSpaceOnUse">
<stop stop-color="#208DDC"/>
<stop offset="0.177083" stop-color="#309AE6" stop-opacity="0.822917"/>
<stop offset="0.426983" stop-color="#63A9DC" stop-opacity="0.322917"/>
<stop offset="0.479167" stop-color="#4184B5" stop-opacity="0.765625"/>
<stop offset="0.526042" stop-color="#63ADE2" stop-opacity="0.572917"/>
<stop offset="0.588542" stop-color="#1D95EC" stop-opacity="0.447917"/>
<stop offset="0.833333" stop-color="#2C9AEA" stop-opacity="0.84"/>
<stop offset="0.854167" stop-color="#97C1DF" stop-opacity="0.322192"/>
<stop offset="1" stop-color="#D9D9D9" stop-opacity="0"/>
</linearGradient>
</defs>
</svg>
