<?xml version="1.0" encoding="UTF-8" standalone="no"?>
<svg
   viewBox="0 0 1440 320"
   version="1.1"
   id="svg4"
   sodipodi:docname="mail1.svg"
   inkscape:version="1.2.2 (b0a8486541, 2022-12-01)"
   xmlns:inkscape="http://www.inkscape.org/namespaces/inkscape"
   xmlns:sodipodi="http://sodipodi.sourceforge.net/DTD/sodipodi-0.dtd"
   xmlns="http://www.w3.org/2000/svg"
   xmlns:svg="http://www.w3.org/2000/svg">
  <defs
     id="defs8" />
  <sodipodi:namedview
     id="namedview6"
     pagecolor="#ffffff"
     bordercolor="#000000"
     borderopacity="0.25"
     inkscape:showpageshadow="2"
     inkscape:pageopacity="0.0"
     inkscape:pagecheckerboard="0"
     inkscape:deskcolor="#d1d1d1"
     showgrid="false"
     inkscape:zoom="0.81388889"
     inkscape:cx="782.04778"
     inkscape:cy="162.79863"
     inkscape:window-width="1366"
     inkscape:window-height="703"
     inkscape:window-x="0"
     inkscape:window-y="0"
     inkscape:window-maximized="1"
     inkscape:current-layer="svg4" />
  <path
     fill="#800081"
     fill-opacity="1"
     d="M -100.66446,74.658408 -12.970936,68.52862 C 74.722598,61.936208 250.10964,50.370571 425.4967,93.163427 600.88376,135.95628 776.2708,235.42076 951.65784,284.3434 c 175.38706,49.38527 350.77416,49.38527 526.16116,30.88025 175.3871,-18.50502 350.7741,-55.51505 526.1612,-111.03011 175.3871,-55.51506 350.774,-129.535132 438.4676,-166.54517 l 87.6934,-37.01003809 v 0 h -87.6934 c -87.6936,0 -263.0805,0 -438.4676,0 -175.3871,0 -350.7741,0 -526.1612,0 -175.387,0 -350.7741,0 -526.16116,0 -175.38704,0 -350.77408,0 -526.16114,0 -175.38706,0 -350.774102,0 -438.467636,0 h -87.693524 z"
     id="path2"
     style="stroke-width:1.45361;fill:#4c4556;fill-opacity:1" />
</svg>
