<svg width="363" height="59" viewBox="0 0 363 59" fill="none" xmlns="http://www.w3.org/2000/svg">
<rect x="0.5" y="0.5" width="362" height="58" rx="0.5" stroke="#FCFFFF"/>
<path d="M30.54 31.6992H16.1083V27.0938H30.54V31.6992ZM32.5966 42H16.1083C15.4755 42 14.7841 41.8887 14.0341 41.666C13.2841 41.4434 12.5869 41.0801 11.9423 40.5762C11.3095 40.0605 10.7763 39.3984 10.3427 38.5898C9.92084 37.7695 9.7099 36.7676 9.7099 35.584V19.0957C9.7099 18.7793 9.76849 18.4805 9.88568 18.1992C10.0029 17.918 10.1611 17.6719 10.3603 17.4609C10.5712 17.25 10.8173 17.0859 11.0986 16.9688C11.3798 16.8516 11.6845 16.793 12.0126 16.793H32.5966V21.3633H14.2802V35.584C14.2802 36.1816 14.4384 36.6387 14.7548 36.9551C15.0712 37.2715 15.5341 37.4297 16.1435 37.4297H32.5966V42ZM53.5497 27.5684H45.5693V42H40.9462V27.5684H35.0048V22.998H40.9462V16.793H45.5693V22.998H53.5497V27.5684ZM77.6845 42H73.1142V29.3965C73.1142 28.7988 72.9619 28.3477 72.6572 28.043C72.3525 27.7266 71.8954 27.5684 71.2861 27.5684H63.0419V22.998H71.2861C71.7197 22.998 72.1767 23.0508 72.6572 23.1562C73.1376 23.25 73.6122 23.4023 74.081 23.6133C74.5615 23.8242 75.0185 24.0996 75.4521 24.4395C75.8857 24.7676 76.2665 25.1719 76.5947 25.6523C76.9228 26.1211 77.1865 26.666 77.3857 27.2871C77.5849 27.9082 77.6845 28.6113 77.6845 29.3965V42ZM61.1962 42H56.6259V14.9648H61.1962V42ZM86.5087 19.0957H81.9384V14.9648H86.5087V19.0957ZM86.5087 42H81.9384V22.998H86.5087V42ZM111.575 35.584C111.575 36.3691 111.476 37.0781 111.276 37.7109C111.077 38.332 110.813 38.8828 110.485 39.3633C110.157 39.832 109.776 40.2363 109.343 40.5762C108.909 40.9043 108.452 41.1738 107.972 41.3848C107.503 41.5957 107.022 41.7539 106.53 41.8594C106.05 41.9531 105.593 42 105.159 42H96.915C96.2822 42 95.5908 41.8887 94.8408 41.666C94.0908 41.4434 93.3935 41.0801 92.749 40.5762C92.1161 40.0605 91.5829 39.3984 91.1494 38.5898C90.7275 37.7695 90.5165 36.7676 90.5165 35.584V29.3965C90.5165 28.2246 90.7275 27.2344 91.1494 26.4258C91.5829 25.6055 92.1161 24.9434 92.749 24.4395C93.3935 23.9238 94.0908 23.5547 94.8408 23.332C95.5908 23.1094 96.2822 22.998 96.915 22.998H105.159C106.331 22.998 107.327 23.209 108.147 23.6309C108.968 24.0527 109.63 24.5859 110.134 25.2305C110.638 25.8633 111.001 26.5547 111.224 27.3047C111.458 28.0547 111.575 28.752 111.575 29.3965V35.584ZM107.005 29.4316C107.005 28.7988 106.847 28.3301 106.53 28.0254C106.214 27.7207 105.757 27.5684 105.159 27.5684H96.9501C96.3408 27.5684 95.8779 27.7266 95.5615 28.043C95.2451 28.3477 95.0869 28.7988 95.0869 29.3965V35.584C95.0869 36.1816 95.2451 36.6387 95.5615 36.9551C95.8779 37.2715 96.3408 37.4297 96.9501 37.4297H105.159C105.78 37.4297 106.243 37.2715 106.548 36.9551C106.852 36.6387 107.005 36.1816 107.005 35.584V29.4316ZM136.431 35.584C136.431 36.0176 136.378 36.4746 136.272 36.9551C136.179 37.4355 136.026 37.916 135.815 38.3965C135.604 38.8652 135.329 39.3164 134.989 39.75C134.661 40.1836 134.257 40.5703 133.776 40.9102C133.308 41.2383 132.763 41.502 132.142 41.7012C131.52 41.9004 130.817 42 130.032 42H121.788C121.354 42 120.897 41.9531 120.417 41.8594C119.936 41.7539 119.456 41.5957 118.976 41.3848C118.507 41.1738 118.056 40.9043 117.622 40.5762C117.188 40.2363 116.802 39.832 116.462 39.3633C116.134 38.8828 115.87 38.332 115.671 37.7109C115.472 37.0781 115.372 36.3691 115.372 35.584V14.9648H119.942V35.584C119.942 36.1465 120.118 36.5977 120.47 36.9375C120.821 37.2656 121.261 37.4297 121.788 37.4297H130.032C130.606 37.4297 131.052 37.2598 131.368 36.9199C131.696 36.5801 131.86 36.1348 131.86 35.584V29.3965C131.86 28.8223 131.69 28.377 131.351 28.0605C131.011 27.7324 130.571 27.5684 130.032 27.5684H121.788V22.998H130.032C130.466 22.998 130.923 23.0508 131.403 23.1562C131.884 23.25 132.358 23.4023 132.827 23.6133C133.308 23.8242 133.765 24.0996 134.198 24.4395C134.632 24.7676 135.013 25.1719 135.341 25.6523C135.669 26.1211 135.933 26.666 136.132 27.2871C136.331 27.9082 136.431 28.6113 136.431 29.3965V35.584ZM161.005 35.584C161.005 36.3691 160.905 37.0781 160.706 37.7109C160.507 38.332 160.243 38.8828 159.915 39.3633C159.587 39.832 159.206 40.2363 158.772 40.5762C158.339 40.9043 157.882 41.1738 157.401 41.3848C156.933 41.5957 156.452 41.7539 155.96 41.8594C155.479 41.9531 155.022 42 154.589 42H146.345C145.712 42 145.02 41.8887 144.27 41.666C143.52 41.4434 142.823 41.0801 142.179 40.5762C141.546 40.0605 141.013 39.3984 140.579 38.5898C140.157 37.7695 139.946 36.7676 139.946 35.584V29.3965C139.946 28.2246 140.157 27.2344 140.579 26.4258C141.013 25.6055 141.546 24.9434 142.179 24.4395C142.823 23.9238 143.52 23.5547 144.27 23.332C145.02 23.1094 145.712 22.998 146.345 22.998H154.589C155.761 22.998 156.757 23.209 157.577 23.6309C158.397 24.0527 159.06 24.5859 159.563 25.2305C160.067 25.8633 160.431 26.5547 160.653 27.3047C160.888 28.0547 161.005 28.752 161.005 29.3965V35.584ZM156.435 29.4316C156.435 28.7988 156.276 28.3301 155.96 28.0254C155.643 27.7207 155.186 27.5684 154.589 27.5684H146.38C145.77 27.5684 145.308 27.7266 144.991 28.043C144.675 28.3477 144.517 28.7988 144.517 29.3965V35.584C144.517 36.1816 144.675 36.6387 144.991 36.9551C145.308 37.2715 145.77 37.4297 146.38 37.4297H154.589C155.21 37.4297 155.673 37.2715 155.977 36.9551C156.282 36.6387 156.435 36.1816 156.435 35.584V29.4316ZM185.579 35.584C185.579 36.3691 185.479 37.0781 185.28 37.7109C185.081 38.332 184.817 38.8828 184.489 39.3633C184.161 39.832 183.78 40.2363 183.347 40.5762C182.913 40.9043 182.456 41.1738 181.976 41.3848C181.507 41.5957 181.026 41.7539 180.534 41.8594C180.054 41.9531 179.597 42 179.163 42H170.919C170.286 42 169.595 41.8887 168.845 41.666C168.095 41.4434 167.397 41.0801 166.753 40.5762C166.12 40.0605 165.587 39.3984 165.153 38.5898C164.731 37.7695 164.52 36.7676 164.52 35.584V29.3965C164.52 28.2246 164.731 27.2344 165.153 26.4258C165.587 25.6055 166.12 24.9434 166.753 24.4395C167.397 23.9238 168.095 23.5547 168.845 23.332C169.595 23.1094 170.286 22.998 170.919 22.998H179.163C180.335 22.998 181.331 23.209 182.151 23.6309C182.972 24.0527 183.634 24.5859 184.138 25.2305C184.642 25.8633 185.005 26.5547 185.227 27.3047C185.462 28.0547 185.579 28.752 185.579 29.3965V35.584ZM181.009 29.4316C181.009 28.7988 180.851 28.3301 180.534 28.0254C180.218 27.7207 179.761 27.5684 179.163 27.5684H170.954C170.345 27.5684 169.882 27.7266 169.565 28.043C169.249 28.3477 169.091 28.7988 169.091 29.3965V35.584C169.091 36.1816 169.249 36.6387 169.565 36.9551C169.882 37.2715 170.345 37.4297 170.954 37.4297H179.163C179.784 37.4297 180.247 37.2715 180.552 36.9551C180.856 36.6387 181.009 36.1816 181.009 35.584V29.4316ZM211.806 42H205.214L196.003 33.1055C195.487 32.6367 195.247 32.0508 195.282 31.3477C195.306 31.0195 195.388 30.7148 195.528 30.4336C195.681 30.1406 195.886 29.8945 196.143 29.6953L204.493 22.9629H211.806L201.048 31.6289L211.806 42ZM194.122 42H189.552V14.9648H194.122V42ZM219.013 19.0957H214.442V14.9648H219.013V19.0957ZM219.013 42H214.442V22.998H219.013V42ZM244.466 42H239.895V31.4531C239.895 30.8555 239.79 30.3223 239.579 29.8535C239.38 29.373 239.104 28.9629 238.753 28.623C238.401 28.2832 237.985 28.0254 237.505 27.8496C237.036 27.6621 236.526 27.5684 235.976 27.5684H227.977V42H223.407V25.2656C223.407 24.9492 223.466 24.6562 223.583 24.3867C223.7 24.1055 223.864 23.8652 224.075 23.666C224.286 23.4551 224.532 23.291 224.813 23.1738C225.095 23.0566 225.393 22.998 225.71 22.998H236.011C236.585 22.998 237.188 23.0625 237.821 23.1914C238.466 23.3203 239.099 23.5312 239.72 23.8242C240.352 24.1055 240.95 24.4688 241.513 24.9141C242.087 25.3477 242.591 25.8809 243.024 26.5137C243.47 27.1348 243.821 27.8555 244.079 28.6758C244.337 29.4961 244.466 30.4219 244.466 31.4531V42ZM269.145 43.8281C269.145 44.6133 269.046 45.3164 268.847 45.9375C268.647 46.5703 268.384 47.1211 268.056 47.5898C267.727 48.0703 267.347 48.4746 266.913 48.8027C266.479 49.1426 266.022 49.418 265.542 49.6289C265.073 49.8398 264.593 49.9922 264.101 50.0859C263.62 50.1914 263.163 50.2441 262.729 50.2441H254.485V45.6738H262.729C263.351 45.6738 263.813 45.5156 264.118 45.1992C264.423 44.8828 264.575 44.4258 264.575 43.8281V29.3965C264.575 28.7988 264.423 28.3477 264.118 28.043C263.813 27.7266 263.351 27.5684 262.729 27.5684H254.485C253.923 27.5684 253.477 27.7441 253.149 28.0957C252.821 28.4355 252.657 28.8691 252.657 29.3965V35.584C252.657 36.1816 252.815 36.6387 253.132 36.9551C253.448 37.2715 253.911 37.4297 254.52 37.4297H262.729V42H254.485C254.052 42 253.595 41.9531 253.114 41.8594C252.634 41.7539 252.153 41.5957 251.673 41.3848C251.204 41.1738 250.753 40.9043 250.319 40.5762C249.886 40.2363 249.505 39.832 249.177 39.3633C248.849 38.8828 248.585 38.332 248.386 37.7109C248.186 37.0781 248.087 36.3691 248.087 35.584V29.3965C248.087 28.9629 248.134 28.5059 248.227 28.0254C248.333 27.5449 248.491 27.0703 248.702 26.6016C248.913 26.1211 249.183 25.6641 249.511 25.2305C249.851 24.7969 250.255 24.416 250.724 24.0879C251.204 23.7598 251.755 23.4961 252.376 23.2969C252.997 23.0977 253.7 22.998 254.485 22.998H262.729C263.163 22.998 263.62 23.0508 264.101 23.1562C264.593 23.25 265.073 23.4023 265.542 23.6133C266.022 23.8242 266.479 24.0996 266.913 24.4395C267.347 24.7676 267.727 25.1719 268.056 25.6523C268.384 26.1211 268.647 26.666 268.847 27.2871C269.046 27.9082 269.145 28.6113 269.145 29.3965V43.8281ZM277.143 39.6973C277.143 40.0137 277.079 40.3125 276.95 40.5938C276.833 40.8633 276.669 41.1035 276.458 41.3145C276.259 41.5137 276.018 41.6719 275.737 41.7891C275.468 41.9062 275.181 41.9648 274.876 41.9648C274.56 41.9648 274.261 41.9062 273.979 41.7891C273.71 41.6719 273.47 41.5137 273.259 41.3145C273.06 41.1035 272.901 40.8633 272.784 40.5938C272.667 40.3125 272.608 40.0137 272.608 39.6973C272.608 39.3926 272.667 39.1055 272.784 38.8359C272.901 38.5547 273.06 38.3145 273.259 38.1152C273.47 37.9043 273.71 37.7402 273.979 37.623C274.261 37.4941 274.56 37.4297 274.876 37.4297C275.181 37.4297 275.468 37.4941 275.737 37.623C276.018 37.7402 276.259 37.9043 276.458 38.1152C276.669 38.3145 276.833 38.5547 276.95 38.8359C277.079 39.1055 277.143 39.3926 277.143 39.6973ZM299.116 42H286.724C286.091 42 285.399 41.8887 284.649 41.666C283.899 41.4434 283.202 41.0801 282.558 40.5762C281.925 40.0605 281.392 39.3984 280.958 38.5898C280.536 37.7695 280.325 36.7676 280.325 35.584V29.3965C280.325 28.9629 280.372 28.5059 280.466 28.0254C280.571 27.5449 280.729 27.0703 280.94 26.6016C281.151 26.1211 281.421 25.6641 281.749 25.2305C282.089 24.7969 282.493 24.416 282.962 24.0879C283.442 23.7598 283.993 23.4961 284.614 23.2969C285.235 23.0977 285.938 22.998 286.724 22.998H299.116V27.5684H286.724C286.126 27.5684 285.669 27.7207 285.352 28.0254C285.048 28.3301 284.895 28.7988 284.895 29.4316V35.584C284.895 36.1816 285.054 36.6387 285.37 36.9551C285.686 37.2715 286.149 37.4297 286.759 37.4297H299.116V42ZM323.427 35.584C323.427 36.3691 323.327 37.0781 323.128 37.7109C322.929 38.332 322.665 38.8828 322.337 39.3633C322.009 39.832 321.628 40.2363 321.194 40.5762C320.761 40.9043 320.304 41.1738 319.823 41.3848C319.354 41.5957 318.874 41.7539 318.382 41.8594C317.901 41.9531 317.444 42 317.011 42H308.767C308.134 42 307.442 41.8887 306.692 41.666C305.942 41.4434 305.245 41.0801 304.601 40.5762C303.968 40.0605 303.435 39.3984 303.001 38.5898C302.579 37.7695 302.368 36.7676 302.368 35.584V29.3965C302.368 28.2246 302.579 27.2344 303.001 26.4258C303.435 25.6055 303.968 24.9434 304.601 24.4395C305.245 23.9238 305.942 23.5547 306.692 23.332C307.442 23.1094 308.134 22.998 308.767 22.998H317.011C318.183 22.998 319.179 23.209 319.999 23.6309C320.819 24.0527 321.481 24.5859 321.985 25.2305C322.489 25.8633 322.852 26.5547 323.075 27.3047C323.31 28.0547 323.427 28.752 323.427 29.3965V35.584ZM318.856 29.4316C318.856 28.7988 318.698 28.3301 318.382 28.0254C318.065 27.7207 317.608 27.5684 317.011 27.5684H308.802C308.192 27.5684 307.729 27.7266 307.413 28.043C307.097 28.3477 306.938 28.7988 306.938 29.3965V35.584C306.938 36.1816 307.097 36.6387 307.413 36.9551C307.729 37.2715 308.192 37.4297 308.802 37.4297H317.011C317.632 37.4297 318.095 37.2715 318.399 36.9551C318.704 36.6387 318.856 36.1816 318.856 35.584V29.4316ZM344.292 42H339.722V29.3965C339.722 28.7988 339.563 28.3477 339.247 28.043C338.931 27.7266 338.462 27.5684 337.841 27.5684H331.899V42H327.329V25.2656C327.329 24.9492 327.388 24.6562 327.505 24.3867C327.622 24.1055 327.786 23.8652 327.997 23.666C328.208 23.4551 328.454 23.291 328.735 23.1738C329.017 23.0566 329.315 22.998 329.632 22.998H337.876C338.509 22.998 339.188 23.1094 339.915 23.332C340.642 23.5547 341.333 23.9121 341.989 24.4043V22.998H348.177C348.61 22.998 349.067 23.0508 349.548 23.1562C350.028 23.25 350.503 23.4023 350.972 23.6133C351.452 23.8242 351.909 24.0996 352.343 24.4395C352.776 24.7676 353.157 25.1719 353.485 25.6523C353.813 26.1211 354.077 26.666 354.276 27.2871C354.476 27.9082 354.575 28.6113 354.575 29.3965V42H350.005V29.3965C350.005 28.7988 349.852 28.3477 349.548 28.043C349.255 27.7266 348.798 27.5684 348.177 27.5684H344.063C344.216 28.1309 344.292 28.7402 344.292 29.3965V42Z" fill="#FCFFFF"/>
</svg>
